<svg width="89" height="48" fill="none" xmlns="http://www.w3.org/2000/svg"><path d="M60.05 7H77.1a4 4 0 014 4v25a4 4 0 01-4 4H61c-4.4 4.91-10.78 8-17.9 8-7.1 0-13.49-3.09-17.88-8H9.1a4 4 0 01-4-4V11a4 4 0 014-4h17.06C30.5 2.67 36.5 0 43.1 0c6.61 0 12.6 2.67 16.94 7z" fill="#668AC6"/><path d="M42.1 10.09l-2.34 1.31.52-2.64-1.98-1.83 2.68-.32 1.13-2.44 1.13 2.44 2.67.32-1.98 1.83.53 2.64-2.35-1.31zM32.1 12.09l-2.34 1.31.52-2.64-1.98-1.83 2.68-.32 1.13-2.44 1.13 2.44 2.67.32-1.98 1.83.53 2.64-2.35-1.31zM52.1 12.09l-2.34 1.31.52-2.64-1.98-1.83 2.68-.32 1.13-2.44 1.13 2.44 2.67.32-1.98 1.83.53 2.64-2.35-1.31z" fill="#fff"/><path fill-rule="evenodd" clip-rule="evenodd" d="M85.12 29.83c0 .6-.58 1.1-1.3 1.1H1.66c-.72 0-1.3-.5-1.3-1.1V18.34c0-.6.58-1.1 1.3-1.1h82.16c.72 0 1.3.5 1.3 1.1v11.49z" fill="#fff"/><path fill-rule="evenodd" clip-rule="evenodd" d="M1.66 16.94c-.91 0-1.66.63-1.66 1.4v11.49c0 .77.74 1.4 1.66 1.4h82.16c.91 0 1.66-.63 1.66-1.4V18.34c0-.77-.75-1.4-1.66-1.4H1.66zM.71 29.83V18.34c0-.44.43-.8.95-.8h82.16c.52 0 .95.36.95.8v11.49c0 .43-.43.79-.95.79H1.66c-.52 0-.95-.36-.95-.8z" fill="#000"/><path d="M83.9 18.26H71.02v11.62h12.9V18.26z" fill="#fff"/><path d="M70.83 18.1v11.93H84.1V18.1H70.83zm12.9.31v11.32H71.19V18.4h12.54zM28.41 18.27h-12.9V29.9h12.9V18.27z" fill="#000"/><path d="M15.34 18.12v11.93h13.25V18.12H15.34zm12.9.3v11.32H15.69V18.43h12.55zM42.24 18.27h-12.9V29.9h12.9V18.27z" fill="#000"/><path d="M29.17 18.12v11.93h13.25V18.12H29.17zm12.9.3v11.32H29.51V18.43h12.54zM56.16 18.27h-12.9V29.9h12.9V18.27z" fill="#000"/><path d="M43.08 18.12v11.93h13.26V18.12H43.08zm12.9.3v11.32H43.44V18.43h12.54zM70.08 18.27h-12.9V29.9h12.9V18.27z" fill="#000"/><path d="M57 18.12v11.93h13.26V18.12H57zm12.9.3v11.32H57.36V18.43H69.9zM14.5 18.27H1.6V29.9h12.9V18.27z" fill="#000"/><path d="M1.42 18.12v11.93h13.25V18.12H1.42zm12.9.3v11.32H1.77V18.43h12.55z" fill="#000"/><path d="M8.35 28.27c-2.75 0-4.21-1.75-4.21-4.11 0-2.57 1.74-4.12 4.22-4.12 2.28 0 3.18.85 3.8 2.35l-2.32.79c-.33-.75-.64-1.21-1.5-1.21-1.06 0-1.52.92-1.52 2.19 0 1.22.44 2.2 1.56 2.2.8 0 1.15-.38 1.65-1.14l2.17 1c-.63 1.04-1.66 2.05-3.85 2.05zM22.76 24.9h-1.53l.17-.53c.33-1 .48-1.45.6-1.99.12.54.26.97.6 2l.16.52zm3.9 3.16l-3.35-7.97h-2.6l-3.35 7.97h2.75l.5-1.41h2.78l.5 1.4h2.77zM37.09 22.78c0 .57-.33.89-1.16.89h-1.51v-1.75h1.54c.81 0 1.13.36 1.13.86zm2.73 5.31l-1.85-3.04c1.02-.4 1.67-1.13 1.67-2.33 0-1.89-1.44-2.6-3.61-2.6h-4.14v7.97h2.52V25.4h1.04l1.5 2.7h2.87zM48.6 22v1.11h2.9v1.87h-2.9v3.11h-2.55v-7.97h7.32V22H48.6zM64.3 24.96h-1.53l.17-.52c.33-1.02.48-1.46.6-2 .12.54.26.97.6 2l.16.52zm3.9 3.16l-3.35-7.97h-2.6l-3.35 7.97h2.75l.5-1.41h2.77l.5 1.4h2.78z" fill="#fff"/><path d="M78.75 29.99l-.4-.54c-.37-.5-.73-1.03-.98-1.46-.23.41-.6.96-.98 1.46l-.45.54h-3.15l3.05-3.64-3.2-3.92h3.26l.56.77c.36.5.76 1.04.97 1.45.23-.41.62-.95.99-1.45l.56-.77h3.18l-3.2 3.88 3 3.68h-3.2zM88.47 18.05c0 .3-.11.55-.35.75-.23.21-.51.31-.85.31-.33 0-.62-.1-.86-.3a.96.96 0 01-.35-.75c0-.3.11-.56.35-.76.24-.21.52-.31.86-.31.34 0 .62.1.85.3.24.21.35.47.35.76zm-.19 0c0-.24-.1-.46-.3-.64-.2-.18-.43-.27-.7-.27-.29 0-.53.1-.73.27a.84.84 0 000 1.29c.2.17.44.26.72.26.28 0 .51-.09.71-.27.2-.17.3-.39.3-.64zm-.34-.27c0 .11-.05.2-.14.28-.1.06-.2.1-.33.1l.45.5h-.28l-.43-.5h-.25v.5h-.22v-1.25h.71c.16 0 .29.03.37.1.08.07.12.16.12.27zm-.22 0c0-.13-.12-.2-.34-.2h-.43V18h.44c.22 0 .33-.07.33-.22z" fill="#000"/><path d="M86.4 17.29a1 1 0 000 1.53c.24.2.53.31.87.31.34 0 .63-.1.87-.31.23-.21.35-.47.35-.77 0-.3-.11-.55-.35-.76a1.27 1.27 0 00-.87-.32c-.34 0-.64.1-.88.32zm.03 1.5a.96.96 0 010-1.48c.22-.2.51-.3.84-.3.33 0 .6.1.84.3.23.2.34.45.34.74 0 .3-.12.54-.34.74-.23.2-.51.3-.84.3-.33 0-.6-.1-.84-.3z" fill="#000"/><path d="M86.54 17.4a.86.86 0 000 1.3c.2.19.45.28.73.28.28 0 .53-.1.73-.27a.86.86 0 000-1.3c-.2-.2-.45-.29-.72-.29-.29 0-.54.1-.74.28zm.03 1.28a.82.82 0 010-1.26c.2-.17.43-.26.71-.26a1 1 0 01.69.27.82.82 0 010 1.25c-.2.17-.43.26-.7.26-.27 0-.5-.08-.7-.26z" fill="#000"/><path d="M86.71 17.4v1.29h.27v-.5h.23l.42.49H87.96l-.45-.5c.11-.01.22-.04.3-.1.1-.08.16-.18.16-.3 0-.11-.05-.2-.14-.28a.6.6 0 00-.38-.1h-.74zm.74.03c.15 0 .27.03.35.1.08.06.12.15.12.25 0 .11-.04.2-.13.26-.1.07-.2.1-.32.1h-.04l.45.51h-.23l-.43-.5H86.93v.5h-.17v-1.22h.69z" fill="#000"/><path d="M86.93 17.57V18h.47c.22 0 .34-.08.34-.24a.17.17 0 00-.1-.15.54.54 0 00-.26-.05h-.45zm.45.03c.1 0 .19.02.24.05.05.03.08.07.08.12 0 .14-.1.2-.3.2h-.42v-.37h.4z" fill="#000"/><path d="M30.4 35.54h1.29c.23 0 .43.02.62.07.2.04.35.11.48.21.13.1.24.22.3.37.08.14.12.32.12.53 0 .21-.04.4-.12.55a.97.97 0 01-.33.37c-.13.1-.3.17-.49.21-.19.05-.4.07-.61.07h-.67v1.87h-.6v-4.25zm.59 1.88h.63c.14 0 .27-.02.4-.04.12-.03.22-.07.31-.12a.59.59 0 00.28-.54.6.6 0 00-.29-.53.77.77 0 00-.3-.11 1.99 1.99 0 00-.4-.04H31v1.38zM33.78 39.79h-.66l1.84-4.25h.54l1.82 4.25h-.67l-.43-1.05H34.2l-.42 1.05zm.63-1.57h1.6l-.8-2-.8 2zM38.46 39.79h-.6v-4.25h1.37c.2 0 .4.02.58.06.19.04.35.11.48.2.14.1.25.22.33.37.08.15.12.33.12.54 0 .32-.1.57-.28.76-.2.2-.44.31-.75.37l1.19 1.95h-.72l-1.08-1.9h-.64v1.9zm0-2.4h.69c.14 0 .27 0 .39-.03a1 1 0 00.3-.11c.1-.06.17-.13.23-.21.05-.09.07-.2.07-.33a.6.6 0 00-.07-.31.59.59 0 00-.21-.21.83.83 0 00-.3-.11 1.8 1.8 0 00-.37-.04h-.73v1.36zM42.97 39.79h-.6v-3.73h-1.35v-.52h3.31v.52h-1.36v3.73zM47.9 38.93v-3.4h.6v4.26h-.75l-2.24-3.47h-.02v3.47h-.59v-4.25h.77l2.22 3.4zM50.13 39.26h2.22v.53h-2.81v-4.25h2.72v.52h-2.13v1.27h2v.51h-2v1.42zM53.73 39.79h-.6v-4.25h1.37c.2 0 .4.02.58.06.19.04.35.11.48.2.14.1.25.22.33.37.08.15.12.33.12.54 0 .32-.1.57-.29.76-.19.2-.44.31-.74.37l1.19 1.95h-.72l-1.08-1.9h-.64v1.9zm0-2.4h.69c.14 0 .27 0 .39-.03a1 1 0 00.3-.11c.1-.06.17-.13.22-.21.06-.09.08-.2.08-.33a.6.6 0 00-.08-.31.59.59 0 00-.2-.21.83.83 0 00-.3-.11 1.8 1.8 0 00-.37-.04h-.73v1.36z" fill="#fff"/></svg>